<?xml version="1.0" encoding="UTF-8"?>
<svg width="1200pt" height="1200pt" version="1.1" viewBox="0 0 1200 1200" xmlns="http://www.w3.org/2000/svg">
 <g stroke="#000">
  <path transform="scale(12)" d="m69.332 67.033h10.761c16.708-1.416 10.762-28.035-6.514-21.522-1.1331-24.637-36.248-21.239-36.248 0.56608 0.13607 5.3311 2.6859 11.089 8.2129 13.876" fill="none" stroke-linecap="round" stroke-miterlimit="3.8637" stroke-width="2.2645"/>
  <path transform="scale(12)" d="m61.511 59.951-4.4749 4.4743" fill="none" stroke-linecap="round" stroke-miterlimit="3.8637" stroke-width="3.3562"/>
  <path transform="scale(12)" d="m60.409 64.425-6.6589 6.7129" fill="none" stroke-linecap="round" stroke-miterlimit="3.8637" stroke-width="3.3562"/>
  <path transform="scale(12)" d="m45.532 60.23-3.3118 3.3118" fill="none" stroke-linecap="round" stroke-miterlimit="3.8637" stroke-width="1.6781"/>
  <path transform="scale(12)" d="m53.343 60.23-3.3132 3.3118" fill="none" stroke-linecap="round" stroke-miterlimit="3.8637" stroke-width="1.6781"/>
  <path transform="scale(12)" d="m37.539 68.341-3.3122 3.3118" fill="none" stroke-linecap="round" stroke-miterlimit="3.8637" stroke-width="1.6781"/>
  <path transform="scale(12)" d="m45.351 68.341-3.3128 3.3118" fill="none" stroke-linecap="round" stroke-miterlimit="3.8637" stroke-width="1.6781"/>
  <path transform="scale(12)" d="m38.831 58.991-22.941 0.052084c-9.3431 0-7.071-14.951 3.2829-11.219 0.26009-9.1419 9.7829-10.91 15.081-6.944-1.7949 6.2171-0.095052 13.579 4.5771 18.111z" fill-rule="evenodd" stroke-miterlimit="10"/>
  <path transform="scale(12)" d="m38.831 58.991-22.941 0.052084c-9.3431 0-7.071-14.951 3.2829-11.219 0.26009-9.1419 9.7829-10.91 15.081-6.944-1.7949 6.2171-0.095052 13.579 4.5771 18.111z" fill-rule="evenodd" stroke-miterlimit="3.8637" stroke-width="1.1653"/>
 </g>
</svg>
